HIERARCHY
ROOT hip
{
  OFFSET 0 0 0
  CHANNELS 6 Xposition Yposition Zposition Zrotation Yrotation Xrotation
  JOINT abdomen
  {
    OFFSET 0 20.6881 -0.73152
    CHANNELS 3 Zrotation Xrotation Yrotation
    JOINT chest
    {
      OFFSET 0 11.7043 -0.48768
      CHANNELS 3 Zrotation Xrotation Yrotation
      JOINT neck
      {
        OFFSET 0 22.1894 -2.19456
        CHANNELS 3 Zrotation Xrotation Yrotation
        JOINT head
        {
          OFFSET -0.24384 7.07133 1.2192
          CHANNELS 3 Zrotation Xrotation Yrotation
          JOINT leftEye
          {
            OFFSET 4.14528 8.04674 8.04672
            CHANNELS 3 Zrotation Xrotation Yrotation
            End Site
            {
              OFFSET 1 0 0
            }
          }
          JOINT rightEye
          {
            OFFSET -3.6576 8.04674 8.04672
            CHANNELS 3 Zrotation Xrotation Yrotation
            End Site
            {
              OFFSET 1 0 0
            }
          }
        }
      }
      JOINT rCollar
      {
        OFFSET -2.68224 19.2634 -4.8768
        CHANNELS 3 Zrotation Xrotation Yrotation
        JOINT rShldr
        {
          OFFSET -8.77824 -1.95073 1.46304
          CHANNELS 3 Zrotation Xrotation Yrotation
          JOINT rForeArm
          {
            OFFSET -28.1742 -1.7115 0.48768
            CHANNELS 3 Zrotation Xrotation Yrotation
            JOINT rHand
            {
              OFFSET -22.5879 0.773209 7.07136
              CHANNELS 3 Zrotation Xrotation Yrotation
              JOINT rThumb1
              {
                OFFSET -1.2192 -0.487915 3.41376
                CHANNELS 3 Zrotation Xrotation Yrotation
                JOINT rThumb2
                {
                  OFFSET -3.37035 -0.52449 3.41376
                  CHANNELS 3 Zrotation Xrotation Yrotation
                  End Site
                  {
                    OFFSET -1.78271 -1.18214 1.43049
                  }
                }
              }
              JOINT rIndex1
              {
                OFFSET -7.75947 0.938293 5.60832
                CHANNELS 3 Zrotation Xrotation Yrotation
                JOINT rIndex2
                {
                  OFFSET -2.54057 -0.884171 1.56538
                  CHANNELS 3 Zrotation Xrotation Yrotation
                  End Site
                  {
                    OFFSET -1.62519 -0.234802 1.16502
                  }
                }
              }
              JOINT rMid1
              {
                OFFSET -8.24714 1.18213 3.41376
                CHANNELS 3 Zrotation Xrotation Yrotation
                JOINT rMid2
                {
                  OFFSET -3.10165 -0.590103 1.0647
                  CHANNELS 3 Zrotation Xrotation Yrotation
                  End Site
                  {
                    OFFSET -2.48547 -0.328903 0.83742
                  }
                }
              }
              JOINT rRing1
              {
                OFFSET -8.82822 0.546677 1.51678
                CHANNELS 3 Zrotation Xrotation Yrotation
                JOINT rRing2
                {
                  OFFSET -2.60934 -0.819778 -0.0198488
                  CHANNELS 3 Zrotation Xrotation Yrotation
                  End Site
                  {
                    OFFSET -2.33842 -0.294052 0.168128
                  }
                }
              }
              JOINT rPinky1
              {
                OFFSET -8.27202 -0.0477905 -0.4584
                CHANNELS 3 Zrotation Xrotation Yrotation
                JOINT rPinky2
                {
                  OFFSET -1.82734 -0.647385 -0.700984
                  CHANNELS 3 Zrotation Xrotation Yrotation
                  End Site
                  {
                    OFFSET -1.69225 -0.51767 -0.607171
                  }
                }
              }
            }
          }
        }
      }
      JOINT lCollar
      {
        OFFSET 2.68224 19.2634 -4.8768
        CHANNELS 3 Zrotation Xrotation Yrotation
        JOINT lShldr
        {
          OFFSET 8.77824 -1.95073 1.46304
          CHANNELS 3 Zrotation Xrotation Yrotation
          JOINT lForeArm
          {
            OFFSET 28.1742 -1.7115 0.48768
            CHANNELS 3 Zrotation Xrotation Yrotation
            JOINT lHand
            {
              OFFSET 22.5879 0.773209 7.07136
              CHANNELS 3 Zrotation Xrotation Yrotation
              JOINT lThumb1
              {
                OFFSET 1.2192 -0.487915 3.41376
                CHANNELS 3 Zrotation Xrotation Yrotation
                JOINT lThumb2
                {
                  OFFSET 3.37035 -0.52449 3.41376
                  CHANNELS 3 Zrotation Xrotation Yrotation
                  End Site
                  {
                    OFFSET 1.78271 -1.18214 1.43049
                  }
                }
              }
              JOINT lIndex1
              {
                OFFSET 7.75947 0.938293 5.60832
                CHANNELS 3 Zrotation Xrotation Yrotation
                JOINT lIndex2
                {
                  OFFSET 2.54057 -0.884171 1.56538
                  CHANNELS 3 Zrotation Xrotation Yrotation
                  End Site
                  {
                    OFFSET 1.62519 -0.234802 1.16502
                  }
                }
              }
              JOINT lMid1
              {
                OFFSET 8.24714 1.18213 3.41376
                CHANNELS 3 Zrotation Xrotation Yrotation
                JOINT lMid2
                {
                  OFFSET 3.10165 -0.590103 1.0647
                  CHANNELS 3 Zrotation Xrotation Yrotation
                  End Site
                  {
                    OFFSET 2.48547 -0.328903 0.83742
                  }
                }
              }
              JOINT lRing1
              {
                OFFSET 8.82822 0.546677 1.51678
                CHANNELS 3 Zrotation Xrotation Yrotation
                JOINT lRing2
                {
                  OFFSET 2.60934 -0.819778 -0.0198488
                  CHANNELS 3 Zrotation Xrotation Yrotation
                  End Site
                  {
                    OFFSET 2.33842 -0.294052 0.168128
                  }
                }
              }
              JOINT lPinky1
              {
                OFFSET 8.27202 -0.0477905 -0.4584
                CHANNELS 3 Zrotation Xrotation Yrotation
                JOINT lPinky2
                {
                  OFFSET 1.82734 -0.647385 -0.700984
                  CHANNELS 3 Zrotation Xrotation Yrotation
                  End Site
                  {
                    OFFSET 1.69225 -0.51767 -0.607171
                  }
                }
              }
            }
          }
        }
      }
    }
  }
  JOINT rButtock
  {
    OFFSET -8.77824 4.35084 1.2192
    CHANNELS 3 Zrotation Xrotation Yrotation
    JOINT rThigh
    {
      OFFSET 0 -1.70687 -2.19456
      CHANNELS 3 Zrotation Xrotation Yrotation
      JOINT rShin
      {
        OFFSET 0 -36.8199 0.73152
        CHANNELS 3 Zrotation Xrotation Yrotation
        JOINT rFoot
        {
          OFFSET 0.73152 -45.1104 -5.12064
          CHANNELS 3 Zrotation Xrotation Yrotation
          End Site
          {
            OFFSET -1.1221 -3.69964 12.103
          }
        }
      }
    }
  }
  JOINT lButtock
  {
    OFFSET 8.77824 4.35084 1.2192
    CHANNELS 3 Zrotation Xrotation Yrotation
    JOINT lThigh
    {
      OFFSET 0 -1.70687 -2.19456
      CHANNELS 3 Zrotation Xrotation Yrotation
      JOINT lShin
      {
        OFFSET 0 -36.8199 0.73152
        CHANNELS 3 Zrotation Xrotation Yrotation
        JOINT lFoot
        {
          OFFSET -0.73152 -45.1104 -5.12064
          CHANNELS 3 Zrotation Xrotation Yrotation
          End Site
          {
            OFFSET 1.1221 -3.69964 12.103
          }
        }
      }
    }
  }
}
MOTION
Frames:	8
Frame Time:	0.00833333
-3.94136 83.5511 124.945 184.385 9.6865 -154.664 -11.7357 -20.4366 -6.55273 4.22971 14.9152 -1.68354 2.87734 11.4857 -10.8802 4.16891 1.35928 -18.7585 -0.0 0.0 0.0 -0.0 0.0 0.0 1.34444e-13 1.49467e-13 2.09966e-13 85.2183 16.4949 -3.26625 -16.5137 -9.1735 30.7649 -0.0320323 -5.10202 -0.718963 -1.09787e-09 2.4082e-09 7.45067e-10 -1.90125e-09 4.17276e-09 1.28996e-09 -1.09786e-09 2.40821e-09 7.45067e-10 7.73091 5.47488 0.417314 -1.09787e-09 2.40821e-09 7.45074e-10 2.90554 0.965183 0.102902 -1.09786e-09 2.40821e-09 7.45077e-10 10.2786 0.731801 0.0259123 -1.09787e-09 2.40821e-09 7.45089e-10 2.22167 -0.733487 -0.20892 1.34322e-13 1.49504e-13 2.09817e-13 -66.6206 18.3989 -3.19653 12.3565 -5.70182 -22.302 0.0014205 1.07612 -0.151257 -1.18815e-09 -5.97617e-10 9.60788e-10 -2.05054e-09 -1.03183e-09 1.66514e-09 -1.18816e-09 -5.97629e-10 9.60807e-10 -7.73091 5.47488 -0.417314 -1.18815e-09 -5.97629e-10 9.60798e-10 -2.90554 0.965183 -0.102902 -1.18816e-09 -5.97632e-10 9.60796e-10 -10.2786 0.731801 -0.0259123 -1.18814e-09 -5.97628e-10 9.60791e-10 -2.22167 -0.733487 0.20892 -2.03217e-16 0.0 -3.88251e-19 -1.96247 -44.9878 3.6012 -0.122933 30.7206 0.892764 -5.96424 -17.1986 -16.827 2.03217e-16 0.0 3.88251e-19 0.733279 -30.6167 -9.0131 0.0414502 16.4709 -0.341524 2.14935 -8.7975 10.0694
-3.72717 83.5689 124.88 184.619 9.7297 -154.644 -11.6685 -20.4599 -6.51998 4.25972 14.9111 -1.68128 2.8519 11.4717 -10.9339 4.3339 1.44158 -18.8578 -0.0 0.0 0.0 -0.0 0.0 0.0 1.41805e-13 1.51355e-13 1.37769e-13 85.1615 16.3618 -3.32629 -16.456 -9.11815 30.641 -0.0311299 -5.02693 -0.708329 -1.17169e-09 2.00684e-09 1.89934e-10 -2.02736e-09 3.47626e-09 3.28557e-10 -1.17169e-09 2.00684e-09 1.89933e-10 7.73091 5.47488 0.417314 -1.17169e-09 2.00684e-09 1.89939e-10 2.90554 0.965183 0.102902 -1.17169e-09 2.00684e-09 1.89941e-10 10.2786 0.731801 0.0259123 -1.1717e-09 2.00685e-09 1.89953e-10 2.22167 -0.733487 -0.20892 1.41699e-13 1.51394e-13 1.37626e-13 -66.4837 18.4687 -3.06379 12.4577 -5.77512 -22.4989 0.00108424 0.957477 -0.134577 -8.59134e-10 -1.577e-10 9.55901e-10 -1.48071e-09 -2.70372e-10 1.6556e-09 -8.59142e-10 -1.5771e-10 9.5592e-10 -7.73091 5.47488 -0.417314 -8.59134e-10 -1.57711e-10 9.55907e-10 -2.90554 0.965183 -0.102902 -8.59145e-10 -1.57714e-10 9.55908e-10 -10.2786 0.731801 -0.0259123 -8.59127e-10 -1.5771e-10 9.55902e-10 -2.22167 -0.733487 0.20892 -2.03217e-16 0.0 -3.88251e-19 -2.6552 -45.0866 3.35284 -0.120056 30.5003 0.88885 -5.86987 -16.8052 -17.0367 2.03217e-16 0.0 3.88251e-19 1.13356 -30.6416 -9.09708 0.0424232 16.6536 -0.352345 2.17 -9.03194 10.244
-3.51628 83.5746 124.811 184.813 9.7477 -154.605 -11.5224 -20.6021 -6.47963 4.30046 14.9436 -1.68038 2.82038 11.518 -10.9593 4.48082 1.39453 -18.903 -0.0 0.0 0.0 -0.0 0.0 0.0 1.56002e-13 1.94788e-13 -1.31571e-14 85.0588 16.2411 -3.35787 -16.387 -9.05213 30.4933 -0.0306445 -4.98778 -0.702784 -1.23333e-09 1.09635e-09 -1.03907e-09 -2.12996e-09 1.89547e-09 -1.79973e-09 -1.23333e-09 1.09635e-09 -1.03907e-09 7.73091 5.47488 0.417314 -1.23333e-09 1.09635e-09 -1.03907e-09 2.90554 0.965183 0.102902 -1.23332e-09 1.09635e-09 -1.03907e-09 10.2786 0.731801 0.0259123 -1.23333e-09 1.09635e-09 -1.03906e-09 2.22167 -0.733487 -0.20892 1.55904e-13 1.9483e-13 -1.33124e-14 -66.3626 18.5599 -2.917 12.5691 -5.85626 -22.7162 0.000745334 0.809977 -0.113842 -4.12089e-10 6.88836e-10 1.02816e-09 -7.05928e-10 1.19465e-09 1.77816e-09 -4.12095e-10 6.88831e-10 1.02818e-09 -7.73091 5.47488 -0.417314 -4.12088e-10 6.8883e-10 1.02816e-09 -2.90554 0.965183 -0.102902 -4.12099e-10 6.88828e-10 1.02816e-09 -10.2786 0.731801 -0.0259123 -4.1208e-10 6.88832e-10 1.02815e-09 -2.22167 -0.733487 0.20892 -2.03217e-16 0.0 -3.88251e-19 -3.27616 -45.2529 3.16362 -0.116074 30.2062 0.8841 -5.79243 -16.3966 -17.3225 2.03217e-16 0.0 3.88251e-19 1.62961 -30.7689 -9.12382 0.0441543 16.8694 -0.363242 2.18749 -9.2782 10.3911
-3.28854 83.5807 124.752 185.094 9.6651 -154.459 -11.3436 -20.7718 -6.4307 4.34414 14.9888 -1.67906 2.79366 11.5697 -10.9728 4.60893 1.32246 -18.9274 -0.0 0.0 0.0 -0.0 0.0 0.0 1.62795e-13 2.38618e-13 -1.68201e-13 84.9487 16.1224 -3.38272 -16.3182 -8.98649 30.3469 -0.0303252 -4.96352 -0.699346 -1.20566e-09 1.43678e-10 -2.28449e-09 -2.07807e-09 2.41428e-10 -3.95634e-09 -1.20566e-09 1.43675e-10 -2.2845e-09 7.73091 5.47488 0.417314 -1.20566e-09 1.43678e-10 -2.28449e-09 2.90554 0.965183 0.102902 -1.20565e-09 1.43679e-10 -2.28449e-09 10.2786 0.731801 0.0259123 -1.20566e-09 1.43681e-10 -2.28448e-09 2.22167 -0.733487 -0.20892 1.62702e-13 2.38663e-13 -1.68378e-13 -66.2356 18.6637 -2.78622 12.677 -5.93515 -22.9275 0.00049697 0.661196 -0.0929286 5.51063e-11 1.56138e-09 1.12153e-09 1.0357e-10 2.70452e-09 1.93712e-09 5.5103e-11 1.56138e-09 1.12155e-09 -7.73091 5.47488 -0.417314 5.51079e-11 1.56138e-09 1.12153e-09 -2.90554 0.965183 -0.102902 5.50969e-11 1.56137e-09 1.12153e-09 -10.2786 0.731801 -0.0259123 5.51169e-11 1.56138e-09 1.12152e-09 -2.22167 -0.733487 0.20892 -2.03217e-16 0.0 -3.88251e-19 -3.86002 -45.4161 3.0304 -0.111323 29.8464 0.876051 -5.69043 -15.964 -17.5787 2.03217e-16 0.0 3.88251e-19 2.16602 -30.9148 -9.12505 0.0462986 17.097 -0.374074 2.20316 -9.51973 10.5301
-3.03925 83.5952 124.704 185.524 9.5525 -154.264 -11.1787 -20.878 -6.37219 4.38294 15.0228 -1.67557 2.78258 11.5718 -10.9911 4.71778 1.32962 -18.9644 -0.0 0.0 0.0 -0.0 0.0 0.0 1.47944e-13 2.41699e-13 -2.52755e-13 84.8693 15.9951 -3.42251 -16.2615 -8.93251 30.2267 -0.0299399 -4.9331 -0.695037 -1.01158e-09 -3.84213e-10 -2.88888e-09 -1.74071e-09 -6.74831e-10 -5.00271e-09 -1.01158e-09 -3.84218e-10 -2.88889e-09 7.73091 5.47488 0.417314 -1.01158e-09 -3.84215e-10 -2.88888e-09 2.90554 0.965183 0.102902 -1.01156e-09 -3.84213e-10 -2.88889e-09 10.2786 0.731801 0.0259123 -1.01158e-09 -3.84211e-10 -2.88888e-09 2.22167 -0.733487 -0.20892 1.47857e-13 2.41745e-13 -2.52954e-13 -66.0804 18.7711 -2.70157 12.7678 -6.0019 -23.1062 0.000355933 0.538706 -0.0757124 4.44567e-10 2.07931e-09 1.18e-09 7.7755e-10 3.60056e-09 2.0368e-09 4.44565e-10 2.07931e-09 1.18001e-09 -7.73091 5.47488 -0.417314 4.44569e-10 2.07931e-09 1.17999e-09 -2.90554 0.965183 -0.102902 4.44558e-10 2.07931e-09 1.18e-09 -10.2786 0.731801 -0.0259123 4.44578e-10 2.07931e-09 1.17999e-09 -2.22167 -0.733487 0.20892 -2.03217e-16 0.0 -3.88251e-19 -4.44036 -45.5056 2.95075 -0.106221 29.4291 0.862283 -5.5254 -15.4984 -17.7007 2.03217e-16 0.0 3.88251e-19 2.68723 -30.9959 -9.13247 0.0484921 17.3154 -0.384696 2.21855 -9.73997 10.6805
-2.79022 83.6107 124.62 185.88 9.5121 -154.242 -11.0345 -20.8978 -6.30183 4.4135 15.0453 -1.66939 2.79901 11.4993 -11.014 4.79063 1.44837 -19.0169 -0.0 0.0 0.0 -0.0 0.0 0.0 8.99542e-14 1.65343e-13 -2.3455e-13 84.8323 15.8629 -3.47965 -16.2222 -8.89524 30.1434 -0.0294003 -4.8887 -0.68875 -4.44415e-10 -3.22324e-10 -2.44251e-09 -7.61985e-10 -5.66119e-10 -4.22912e-09 -4.44414e-10 -3.22329e-10 -2.44252e-09 7.73091 5.47488 0.417314 -4.44415e-10 -3.22326e-10 -2.44251e-09 2.90554 0.965183 0.102902 -4.44402e-10 -3.22324e-10 -2.44252e-09 10.2786 0.731801 0.0259123 -4.44416e-10 -3.22321e-10 -2.44251e-09 2.22167 -0.733487 -0.20892 8.98771e-14 1.65385e-13 -2.34776e-13 -65.8791 18.884 -2.69058 12.834 -6.05079 -23.2367 0.000273442 0.452921 -0.0636556 8.07575e-10 2.0562e-09 1.14368e-09 1.4038e-09 3.55992e-09 1.97426e-09 8.07574e-10 2.0562e-09 1.14369e-09 -7.73091 5.47488 -0.417314 8.07578e-10 2.0562e-09 1.14368e-09 -2.90554 0.965183 -0.102902 8.07568e-10 2.0562e-09 1.14368e-09 -10.2786 0.731801 -0.0259123 8.07586e-10 2.0562e-09 1.14367e-09 -2.22167 -0.733487 0.20892 -2.03217e-16 0.0 -3.88251e-19 -5.00689 -45.515 2.94837 -0.101338 28.9508 0.841571 -5.28592 -15.0128 -17.6354 2.03217e-16 0.0 3.88251e-19 3.18971 -30.9948 -9.14943 0.0507011 17.524 -0.395167 2.2354 -9.93881 10.8504
-2.54372 83.6165 124.52 186.135 9.5083 -154.313 -10.8881 -20.8793 -6.22084 4.4404 15.0672 -1.66147 2.83409 11.385 -11.0341 4.83353 1.6215 -19.0692 -0.0 0.0 0.0 -0.0 0.0 0.0 2.3196e-15 4.07319e-14 -1.57503e-13 84.8167 15.7293 -3.54369 -16.1935 -8.86812 30.0824 -0.0288409 -4.84228 -0.682179 3.92667e-10 6.6811e-11 -1.37416e-09 6.81264e-10 1.11376e-10 -2.37818e-09 3.9267e-10 6.6806e-11 -1.37417e-09 7.73091 5.47488 0.417314 3.92667e-10 6.68081e-11 -1.37416e-09 2.90554 0.965183 0.102902 3.92678e-10 6.68099e-11 -1.37417e-09 10.2786 0.731801 0.0259123 3.92665e-10 6.6814e-11 -1.37416e-09 2.22167 -0.733487 -0.20892 2.2524e-15 4.07695e-14 -1.57764e-13 -65.6471 19.0058 -2.73084 12.8844 -6.0883 -23.3358 0.000206027 0.388117 -0.0545474 1.17054e-09 1.72336e-09 1.05745e-09 2.02872e-09 2.98297e-09 1.82634e-09 1.17054e-09 1.72336e-09 1.05746e-09 -7.73091 5.47488 -0.417314 1.17054e-09 1.72336e-09 1.05745e-09 -2.90554 0.965183 -0.102902 1.17054e-09 1.72336e-09 1.05745e-09 -10.2786 0.731801 -0.0259123 1.17055e-09 1.72336e-09 1.05745e-09 -2.22167 -0.733487 0.20892 -2.03217e-16 0.0 -3.88251e-19 -5.54738 -45.478 3.01693 -0.0966543 28.4091 0.815607 -4.99806 -14.5055 -17.4486 2.03217e-16 0.0 3.88251e-19 3.69944 -30.9545 -9.16067 0.0530953 17.7325 -0.405533 2.25238 -10.1237 11.0284
-2.29554 83.6124 124.442 186.404 9.4905 -154.305 -10.7422 -20.8375 -6.13361 4.46779 15.0808 -1.65225 2.86758 11.2606 -11.0574 4.88031 1.81885 -19.1269 -0.0 0.0 0.0 -0.0 0.0 0.0 -7.67159e-14 -6.84727e-14 -6.12773e-14 84.8116 15.5835 -3.6169 -16.169 -8.84512 30.0303 -0.0283678 -4.80248 -0.676545 1.11204e-09 6.08837e-10 -2.8413e-10 1.92091e-09 1.05362e-09 -4.89776e-10 1.11205e-09 6.08833e-10 -2.8414e-10 7.73091 5.47488 0.417314 1.11204e-09 6.08834e-10 -2.84128e-10 2.90554 0.965183 0.102902 1.11205e-09 6.08836e-10 -2.84135e-10 10.2786 0.731801 0.0259123 1.11204e-09 6.08841e-10 -2.84126e-10 2.22167 -0.733487 -0.20892 -7.6776e-14 -6.84406e-14 -6.1567e-14 -65.4124 19.1297 -2.77756 12.9305 -6.12289 -23.4263 0.000143832 0.332655 -0.0467522 1.39827e-09 1.32676e-09 1.02235e-09 2.41999e-09 2.29582e-09 1.767e-09 1.39827e-09 1.32676e-09 1.02236e-09 -7.73091 5.47488 -0.417314 1.39828e-09 1.32676e-09 1.02235e-09 -2.90554 0.965183 -0.102902 1.39827e-09 1.32676e-09 1.02236e-09 -10.2786 0.731801 -0.0259123 1.39828e-09 1.32676e-09 1.02235e-09 -2.22167 -0.733487 0.20892 -2.03217e-16 0.0 -3.88251e-19 -6.09265 -45.3838 3.10894 -0.0917422 27.8136 0.786356 -4.68068 -13.9455 -17.2152 2.03217e-16 0.0 3.88251e-19 4.20495 -30.8815 -9.16993 0.0555966 17.9347 -0.415615 2.26634 -10.2891 11.2047
